<svg xmlns="http://www.w3.org/2000/svg" xmlns:xlink="http://www.w3.org/1999/xlink" version="1.1" x="0px" y="0px" viewBox="0 0 100 125" enable-background="new 0 0 100 100" xml:space="preserve"><path fill-rule="evenodd" clip-rule="evenodd" d="M50,44c3.334,0,6.5,0.633,9.5,1.9c2.867,1.301,5.301,3.051,7.301,5.25  c1.432,1.1,2.648,2.184,3.648,3.25l0.801,0.9c2.766,2.9,4.699,5.316,5.801,7.25c1.965,3.299,2.932,6.867,2.898,10.699  c-0.066,4.033-1.732,7.467-5,10.301c-3.299,2.9-7.25,4.35-11.85,4.35c-2.666,0-5.15-0.5-7.449-1.5c-2.334-1-4.283-2.4-5.85-4.199  C48.199,84,46.25,85.4,43.949,86.4c-2.332,1-4.832,1.5-7.5,1.5c-4.6,0-8.549-1.449-11.85-4.35  c-3.266-2.834-4.916-6.268-4.949-10.301c-0.033-3.832,0.916-7.4,2.85-10.699c1.133-1.934,3.066-4.35,5.801-7.25l0.85-0.9  c1.299-1.367,3.1-2.9,5.4-4.6c1.932-1.867,4.232-3.283,6.898-4.25C44.184,44.518,47.033,44,50,44z M50.9,36.801  c-3.9,0-7.25-1.201-10.051-3.6c-2.766-2.434-4.15-5.334-4.15-8.701c0-3.434,1.385-6.35,4.15-8.75  c2.768-2.434,6.117-3.65,10.051-3.65s7.283,1.217,10.049,3.65c2.734,2.4,4.102,5.316,4.102,8.75c0,3.367-1.367,6.268-4.102,8.701  C58.15,35.6,54.801,36.801,50.9,36.801z M8.75,47.701C6.25,45.467,5,42.816,5,39.75c0-3.1,1.266-5.732,3.801-7.9  c2.5-2.232,5.516-3.35,9.049-3.35c3.566,0,6.617,1.117,9.15,3.35c2.533,2.168,3.801,4.801,3.801,7.9  c0,3.066-1.268,5.717-3.801,7.951c-2.533,2.166-5.584,3.25-9.15,3.25S11.25,49.867,8.75,47.701z M73,34.051  c2.533-2.201,5.566-3.301,9.1-3.301c3.566,0,6.6,1.1,9.1,3.301C93.732,36.217,95,38.85,95,41.951c0,3.1-1.268,5.75-3.801,7.949  c-2.5,2.166-5.533,3.25-9.1,3.25c-3.533,0-6.566-1.084-9.1-3.25c-2.533-2.199-3.801-4.85-3.801-7.949  C69.199,38.85,70.467,36.217,73,34.051z" fill="#f43f5e"/></svg>
